<?xml version="1.0" encoding="UTF-8" standalone="no"?>
<svg width="17px" height="20px" viewBox="0 0 17 20" version="1.1" xmlns="http://www.w3.org/2000/svg" xmlns:xlink="http://www.w3.org/1999/xlink" xmlns:sketch="http://www.bohemiancoding.com/sketch/ns">
    <!-- Generator: Sketch 3.3.2 (12043) - http://www.bohemiancoding.com/sketch -->
    <title>calendar</title>
    <desc>Created with Sketch.</desc>
    <defs></defs>
    <g id="Page-1" stroke="none" stroke-width="1" fill="none" fill-rule="evenodd" sketch:type="MSPage">
        <g id="Imported-Layers-2-Copy" sketch:type="MSLayerGroup" transform="translate(1.000000, -0.000000)">
            <path d="M0,3.5625 L14.8148148,3.5625 L14.8148148,18.40625 L0,18.40625 L0,3.5625 Z M3.55555556,0 L3.55555556,1.78125 L3.55555556,0 Z M11.2592593,0 L11.2592593,1.78125 L11.2592593,0 Z" id="Stroke-1" stroke="#BFBFBF" stroke-width="2" sketch:type="MSShapeGroup"></path>
            <path d="M10.0740741,5.34375 L13.037037,5.34375 L13.037037,8.3125 L10.0740741,8.3125 L10.0740741,5.34375 Z" id="Fill-2" fill="#BFBFBF" sketch:type="MSShapeGroup"></path>
            <path d="M5.92592593,5.34375 L8.88888889,5.34375 L8.88888889,8.3125 L5.92592593,8.3125 L5.92592593,5.34375 Z" id="Fill-3" fill="#BFBFBF" sketch:type="MSShapeGroup"></path>
            <path d="M1.77777778,5.34375 L4.74074074,5.34375 L4.74074074,8.3125 L1.77777778,8.3125 L1.77777778,5.34375 Z" id="Fill-4" fill="#E8E8E8" sketch:type="MSShapeGroup"></path>
            <path d="M10.0740741,9.5 L13.037037,9.5 L13.037037,12.46875 L10.0740741,12.46875 L10.0740741,9.5 Z" id="Fill-5" fill="#BFBFBF" sketch:type="MSShapeGroup"></path>
            <path d="M5.92592593,9.5 L8.88888889,9.5 L8.88888889,12.46875 L5.92592593,12.46875 L5.92592593,9.5 Z" id="Fill-6" fill="#BFBFBF" sketch:type="MSShapeGroup"></path>
            <path d="M1.77777778,9.5 L4.74074074,9.5 L4.74074074,12.46875 L1.77777778,12.46875 L1.77777778,9.5 Z" id="Fill-7" fill="#BFBFBF" sketch:type="MSShapeGroup"></path>
            <path d="M10.0740741,13.65625 L13.037037,13.65625 L13.037037,16.625 L10.0740741,16.625 L10.0740741,13.65625 Z" id="Fill-8" fill="#E8E8E8" sketch:type="MSShapeGroup"></path>
            <path d="M5.92592593,13.65625 L8.88888889,13.65625 L8.88888889,16.625 L5.92592593,16.625 L5.92592593,13.65625 Z" id="Fill-9" fill="#BFBFBF" sketch:type="MSShapeGroup"></path>
            <path d="M1.77777778,13.65625 L4.74074074,13.65625 L4.74074074,16.625 L1.77777778,16.625 L1.77777778,13.65625 Z" id="Fill-10" fill="#BFBFBF" sketch:type="MSShapeGroup"></path>
        </g>
    </g>
</svg>