<?xml version="1.0" encoding="UTF-8" standalone="no"?>
<svg width="30px" height="30px" viewBox="0 0 30 30" version="1.1" xmlns="http://www.w3.org/2000/svg" xmlns:xlink="http://www.w3.org/1999/xlink" xmlns:sketch="http://www.bohemiancoding.com/sketch/ns">
    <!-- Generator: Sketch 3.2.2 (9983) - http://www.bohemiancoding.com/sketch -->
    <title>call</title>
    <desc>Created with Sketch.</desc>
    <defs></defs>
    <g id="Page-1" stroke="none" stroke-width="1" fill="none" fill-rule="evenodd" sketch:type="MSPage">
        <g id="Oval-48-+-Imported-Layers" sketch:type="MSLayerGroup">
            <circle id="Oval-48" fill="#68EBCA" sketch:type="MSShapeGroup" cx="15" cy="15" r="15"></circle>
            <path d="M13.6324579,10.3193875 L12.4074579,7.3799589 C12.2624579,7.02338747 11.7824579,6.88624462 11.4424579,7.10567319 L9.57745794,8.2759589 C9.39745794,8.39481604 9.26745794,8.5639589 9.22745794,8.76510176 C8.99245794,9.83481604 8.44245794,13.4645303 10.8024579,17.1353875 C12.9274579,20.4359589 15.6324579,21.5925303 16.9724579,21.9811018 C17.4624579,22.122816 17.9974579,22.0633875 18.4424579,21.8302446 L20.5624579,20.7239589 C20.9374579,20.5273875 21.0074579,20.0611018 20.7024579,19.786816 L18.2024579,17.5011018 C17.9724579,17.290816 17.6124579,17.2679589 17.3524579,17.4462446 L16.5374579,18.0039589 C16.0774579,18.3193875 15.4424579,18.3102446 15.0074579,17.9719589 C14.5324579,17.6016732 13.9024579,17.0256732 13.3024579,16.2211018 C12.4124579,15.018816 11.9874579,13.1216732 11.8524579,12.3993875 C11.8224579,12.2211018 11.9024579,12.042816 12.0574579,11.9331018 L13.4174579,11.0005303 C13.6474579,10.8451018 13.7324579,10.5662446 13.6324579,10.3193875 L13.6324579,10.3193875 Z" id="Imported-Layers" fill="#FFFFFF" sketch:type="MSShapeGroup"></path>
        </g>
    </g>
</svg>