<?xml version="1.0" encoding="UTF-8" standalone="no"?>
<svg width="11px" height="10px" viewBox="0 0 11 10" version="1.1" xmlns="http://www.w3.org/2000/svg" xmlns:xlink="http://www.w3.org/1999/xlink" xmlns:sketch="http://www.bohemiancoding.com/sketch/ns">
    <!-- Generator: Sketch 3.3.2 (12043) - http://www.bohemiancoding.com/sketch -->
    <title>Imported Layers</title>
    <desc>Created with Sketch.</desc>
    <defs></defs>
    <g id="Page-1" stroke="none" stroke-width="1" fill="none" fill-rule="evenodd" sketch:type="MSPage">
        <path d="M9.82116667,7.15647059 L6.98866667,6.10647059 C6.60427778,5.98352941 6.53522222,5.78529412 6.58288889,5.32411765 C6.58288889,5.32411765 7.94566667,3.86764706 7.94566667,2.74941176 C7.94566667,1.25411765 6.90188889,0 5.60755556,0 C4.31322222,0 3.267,1.27529412 3.267,2.77058824 C3.267,3.88882353 4.58088889,5.32411765 4.58088889,5.32411765 C4.60411111,5.78529412 4.4605,5.97352941 4.06083333,6.06941176 L1.17883333,7.15647059 C0.802388889,7.32529412 0,7.8 0,8.18176471 C0,9.01882353 0.834777778,9.58529412 1.57116667,9.58529412 L9.42883333,9.58529412 C10.7298889,9.58529412 11,8.18176471 11,8.18176471 C11,7.82705882 10.2141111,7.44 9.82116667,7.15647059" id="Imported-Layers" fill="#568FFF" sketch:type="MSShapeGroup"></path>
    </g>
</svg>