<?xml version="1.0" encoding="UTF-8" standalone="no"?>
<svg width="19px" height="19px" viewBox="0 0 19 19" version="1.1" xmlns="http://www.w3.org/2000/svg" xmlns:xlink="http://www.w3.org/1999/xlink" xmlns:sketch="http://www.bohemiancoding.com/sketch/ns">
    <!-- Generator: Sketch 3.2.2 (9983) - http://www.bohemiancoding.com/sketch -->
    <title>max</title>
    <desc>Created with Sketch.</desc>
    <defs></defs>
    <g id="Page-1" stroke="none" stroke-width="1" fill="none" fill-rule="evenodd" sketch:type="MSPage">
        <path d="M6,14 L2.821,14 C1.815,14 1,13.185 1,12.179 L1,2.821 C1,1.815 1.815,1 2.821,1 L12.179,1 C13.185,1 14,1.815 14,2.821 L14,6 M16.179,18 L10.821,18 C9.815,18 9,17.185 9,16.179 L9,10.821 C9,9.815 9.815,9 10.821,9 L16.179,9 C17.185,9 18,9.815 18,10.821 L18,16.179 C18,17.185 17.185,18 16.179,18 L16.179,18 Z" id="Imported-Layers" stroke="#AAAAAA" stroke-width="2" sketch:type="MSShapeGroup" transform="translate(9.500000, 9.500000) scale(-1, -1) translate(-9.500000, -9.500000) "></path>
    </g>
</svg>