<?xml version="1.0" encoding="UTF-8" standalone="no"?>
<svg width="19px" height="20px" viewBox="0 0 19 20" version="1.1" xmlns="http://www.w3.org/2000/svg" xmlns:xlink="http://www.w3.org/1999/xlink" xmlns:sketch="http://www.bohemiancoding.com/sketch/ns">
    <!-- Generator: Sketch 3.2.2 (9983) - http://www.bohemiancoding.com/sketch -->
    <title>minimize-hover</title>
    <desc>Created with Sketch.</desc>
    <defs></defs>
    <g id="Page-1" stroke="none" stroke-width="1" fill="none" fill-rule="evenodd" sketch:type="MSPage">
        <path d="M6,14.934522 L2.821,14.934522 C1.815,14.934522 1,14.119522 1,13.113522 L1,3.75552197 C1,2.74952197 1.815,1.93452197 2.821,1.93452197 L12.179,1.93452197 C13.185,1.93452197 14,2.74952197 14,3.75552197 L14,6.93452197 M16.179,18.934522 L10.821,18.934522 C9.815,18.934522 9,18.119522 9,17.113522 L9,11.755522 C9,10.749522 9.815,9.93452197 10.821,9.93452197 L16.179,9.93452197 C17.185,9.93452197 18,10.749522 18,11.755522 L18,17.113522 C18,18.119522 17.185,18.934522 16.179,18.934522 L16.179,18.934522 Z" id="Imported-Layers" stroke="#4A87FF" stroke-width="2" sketch:type="MSShapeGroup"></path>
    </g>
</svg>