<?xml version="1.0" encoding="UTF-8" standalone="no"?>
<svg width="17px" height="21px" viewBox="0 0 17 21" version="1.1" xmlns="http://www.w3.org/2000/svg" xmlns:xlink="http://www.w3.org/1999/xlink" xmlns:sketch="http://www.bohemiancoding.com/sketch/ns">
    <!-- Generator: Sketch 3.2.2 (9983) - http://www.bohemiancoding.com/sketch -->
    <title>notification</title>
    <desc>Created with Sketch.</desc>
    <defs></defs>
    <g id="Page-1" stroke="none" stroke-width="1" fill="none" fill-rule="evenodd" sketch:type="MSPage">
        <path d="M13.4232812,15.1437327 C14.9704308,13.5965831 19.3969192,9.80366228 15.4562131,5.86295619 C11.5155071,1.9222501 7.89936298,6.52551524 6.35221334,8.07266488 C2.81667944,11.6081988 1.93279596,9.87720138 -0.718854471,10.7243153 C-0.718854471,10.7243153 -0.498237155,12.5359229 4.14250465,17.1766647 C8.78324645,21.8174065 10.7716307,22.2148005 10.7716307,22.2148005 C11.6562213,19.5907272 9.88774725,18.6792666 13.4232812,15.1437327 L13.4232812,15.1437327 Z M15.4562131,4.44874263 C15.9441168,3.96083895 16.382523,3.96083895 16.8704267,4.44874263 C17.3583304,4.9366463 17.3583304,5.37505251 16.8704267,5.86295619 L15.4562131,4.44874263 L15.4562131,4.44874263 Z M2.02118431,16.4695579 L4.84961143,19.297985 C4.84961143,19.297985 3.77763755,19.6402247 2.72829109,18.5908782 C1.67894462,17.5415318 2.02118431,16.4695579 2.02118431,16.4695579 L2.02118431,16.4695579 Z" id="Fill-2" fill="#757575" sketch:type="MSShapeGroup" transform="translate(8.258750, 13.148808) rotate(-45.000000) translate(-8.258750, -13.148808) "></path>
    </g>
</svg>