<?xml version="1.0" encoding="UTF-8" standalone="no"?>
<svg width="20px" height="20px" viewBox="0 0 20 20" version="1.1" xmlns="http://www.w3.org/2000/svg" xmlns:xlink="http://www.w3.org/1999/xlink" xmlns:sketch="http://www.bohemiancoding.com/sketch/ns">
    <!-- Generator: Sketch 3.2.2 (9983) - http://www.bohemiancoding.com/sketch -->
    <title>settings</title>
    <desc>Created with Sketch.</desc>
    <defs></defs>
    <g id="Page-1" stroke="none" stroke-width="1" fill="none" fill-rule="evenodd" sketch:type="MSPage">
        <path d="M17.1055556,12.938 C17.1033333,12.9435556 17.1011111,12.9488889 17.0988889,12.9544444 C16.8748889,13.4966667 16.8733333,14.1046667 17.0968889,14.6471111 L17.5984444,15.8655556 C17.7182222,16.1564444 17.6513333,16.4906667 17.4288889,16.7131111 L16.7131111,17.4288889 C16.4906667,17.6513333 16.1562222,17.7182222 15.8655556,17.5984444 L14.6471111,17.0968889 C14.1046667,16.8735556 13.4966667,16.8748889 12.9544444,17.0988889 C12.9488889,17.1011111 12.9435556,17.1033333 12.938,17.1055556 C12.3928889,17.3295556 11.9588889,17.7602222 11.7322222,18.3042222 L11.2253333,19.5204444 C11.1044444,19.8108889 10.8206667,20 10.5062222,20 L9.49377778,20 C9.17933333,20 8.89555556,19.8108889 8.77466667,19.5204444 L8.26777778,18.3042222 C8.04111111,17.7602222 7.60711111,17.3293333 7.06177778,17.1055556 C7.05644444,17.1033333 7.05088889,17.1011111 7.04555556,17.0988889 C6.50333333,16.8748889 5.89533333,16.8735556 5.35288889,17.0968889 L4.13444444,17.5984444 C3.84355556,17.7182222 3.50933333,17.6513333 3.28688889,17.4288889 L2.57111111,16.7131111 C2.34866667,16.4906667 2.28177778,16.1564444 2.40155556,15.8655556 L2.90311111,14.6471111 C3.12644444,14.1046667 3.12511111,13.4966667 2.90111111,12.9544444 C2.89888889,12.9491111 2.89666667,12.9435556 2.89444444,12.9382222 C2.67044444,12.3928889 2.23977778,11.9588889 1.69577778,11.7322222 L0.479555556,11.2253333 C0.189111111,11.1044444 0,10.8206667 0,10.5062222 L0,9.49377778 C0,9.17933333 0.189111111,8.89555556 0.479555556,8.77444444 L1.69577778,8.26777778 C2.23977778,8.04111111 2.67044444,7.60711111 2.89444444,7.06177778 C2.89666667,7.05644444 2.89888889,7.05111111 2.90111111,7.04555556 C3.12511111,6.50333333 3.12644444,5.89533333 2.90311111,5.35288889 L2.40155556,4.13444444 C2.28177778,3.84355556 2.34866667,3.50933333 2.57111111,3.28688889 L3.28688889,2.57111111 C3.50933333,2.34866667 3.84355556,2.28177778 4.13444444,2.40155556 L5.35288889,2.90311111 C5.89533333,3.12644444 6.50333333,3.12511111 7.04555556,2.90111111 C7.05111111,2.89888889 7.05644444,2.89666667 7.06177778,2.89444444 C7.60711111,2.67044444 8.04111111,2.23977778 8.26777778,1.69577778 L8.77466667,0.479555556 C8.89555556,0.189111111 9.17933333,0 9.49377778,0 L10.5062222,0 C10.8206667,0 11.1044444,0.189111111 11.2253333,0.479555556 L11.7322222,1.69577778 C11.9588889,2.23977778 12.3928889,2.67044444 12.938,2.89444444 C12.9435556,2.89666667 12.9488889,2.89888889 12.9544444,2.90111111 C13.4966667,3.12511111 14.1046667,3.12644444 14.6471111,2.90311111 L15.8655556,2.40155556 C16.1564444,2.28177778 16.4906667,2.34866667 16.7131111,2.57111111 L17.4288889,3.28688889 C17.6513333,3.50933333 17.7182222,3.84377778 17.5984444,4.13444444 L17.0968889,5.35288889 C16.8733333,5.89533333 16.8748889,6.50333333 17.0988889,7.04555556 C17.1011111,7.05111111 17.1033333,7.05644444 17.1055556,7.06177778 C17.3295556,7.60711111 17.7602222,8.04111111 18.3042222,8.26777778 L19.5204444,8.77444444 C19.8108889,8.89555556 20,9.17933333 20,9.49377778 L20,10.5062222 C20,10.8206667 19.8108889,11.1044444 19.5204444,11.2253333 L18.3042222,11.7322222 C17.7602222,11.9588889 17.3295556,12.3928889 17.1055556,12.938 L17.1055556,12.938 Z M13.0513333,10.4008889 C13.3066667,8.39111111 11.6088889,6.69333333 9.59911111,6.94866667 C8.22888889,7.12266667 7.12266667,8.22888889 6.94866667,9.59911111 C6.69333333,11.6088889 8.39088889,13.3068889 10.4008889,13.0513333 C11.7711111,12.8773333 12.8773333,11.7711111 13.0513333,10.4008889 L13.0513333,10.4008889 Z" id="Imported-Layers" fill="#757575" sketch:type="MSShapeGroup"></path>
    </g>
</svg>