<?xml version="1.0" encoding="UTF-8" standalone="no"?>
<svg width="65px" height="14px" viewBox="0 0 65 14" version="1.1" xmlns="http://www.w3.org/2000/svg" xmlns:xlink="http://www.w3.org/1999/xlink" xmlns:sketch="http://www.bohemiancoding.com/sketch/ns">
    <!-- Generator: Sketch 3.2.2 (9983) - http://www.bohemiancoding.com/sketch -->
    <title>SMART</title>
    <desc>Created with Sketch.</desc>
    <defs></defs>
    <g id="Page-1" stroke="none" stroke-width="1" fill="none" fill-rule="evenodd" sketch:type="MSPage">
        <path d="M7.902,3.13988463 C7.6619988,2.82788307 7.32300219,2.56688568 6.885,2.35688463 C6.44699781,2.14688358 6.00600222,2.04188463 5.562,2.04188463 C5.29799868,2.04188463 5.03400132,2.0748843 4.77,2.14088463 C4.50599868,2.20688496 4.26600108,2.30888394 4.05,2.44688463 C3.83399892,2.58488532 3.65700069,2.76488352 3.519,2.98688463 C3.38099931,3.20888574 3.312,3.47588307 3.312,3.78788463 C3.312,4.07588607 3.3719994,4.32188361 3.492,4.52588463 C3.6120006,4.72988565 3.77699895,4.90388391 3.987,5.04788463 C4.19700105,5.19188535 4.4519985,5.31788409 4.752,5.42588463 C5.0520015,5.53388517 5.3819982,5.64188409 5.742,5.74988463 C6.15000204,5.88188529 6.57299781,6.03188379 7.011,6.19988463 C7.44900219,6.36788547 7.85099817,6.58988325 8.217,6.86588463 C8.58300183,7.14188601 8.88299883,7.48988253 9.117,7.90988463 C9.35100117,8.32988673 9.468,8.85188151 9.468,9.47588463 C9.468,10.1598881 9.34200126,10.7568821 9.09,11.2668846 C8.83799874,11.7768872 8.5020021,12.199883 8.082,12.5358846 C7.6619979,12.8718863 7.17000282,13.1238838 6.606,13.2918846 C6.04199718,13.4598855 5.44800312,13.5438846 4.824,13.5438846 C3.99599586,13.5438846 3.18600396,13.3908862 2.394,13.0848846 C1.60199604,12.7788831 0.95400252,12.3258876 0.45,11.7258846 L2.07,10.2138846 C2.38200156,10.6458868 2.79899739,10.9878834 3.321,11.2398846 C3.84300261,11.4918859 4.35599748,11.6178846 4.86,11.6178846 C5.12400132,11.6178846 5.39399862,11.584885 5.67,11.5188846 C5.94600138,11.4528843 6.19499889,11.3418854 6.417,11.1858846 C6.63900111,11.0298839 6.81899931,10.8348858 6.957,10.6008846 C7.09500069,10.3668835 7.164,10.0758864 7.164,9.72788463 C7.164,9.39188295 7.08600078,9.11288574 6.93,8.89088463 C6.77399922,8.66888352 6.56400132,8.47688544 6.3,8.31488463 C6.03599868,8.15288382 5.7240018,8.01188523 5.364,7.89188463 C5.0039982,7.77188403 4.62600198,7.64588529 4.23,7.51388463 C3.84599808,7.39388403 3.46200192,7.24988547 3.078,7.08188463 C2.69399808,6.91388379 2.34900153,6.69188601 2.043,6.41588463 C1.73699847,6.13988325 1.48800096,5.80088664 1.296,5.39888463 C1.10399904,4.99688262 1.008,4.49588763 1.008,3.89588463 C1.008,3.24788139 1.14299865,2.68988697 1.413,2.22188463 C1.68300135,1.75388229 2.03699781,1.36688616 2.475,1.06088463 C2.91300219,0.7548831 3.41099721,0.52688538 3.969,0.37688463 C4.52700279,0.22688388 5.09399712,0.15188463 5.67,0.15188463 C6.31800324,0.15188463 6.97499667,0.26588349 7.641,0.49388463 C8.30700333,0.72188577 8.88599754,1.06388235 9.378,1.51988463 L7.902,3.13988463 Z M12.736,0.47588463 L16.282,0.47588463 L19.594,9.52988463 L19.648,9.52988463 L22.924,0.47588463 L26.488,0.47588463 L26.488,13.2198846 L24.238,13.2198846 L24.238,2.97788463 L24.202,2.97788463 L20.332,13.2198846 L18.748,13.2198846 L14.932,2.97788463 L14.896,2.97788463 L14.896,13.2198846 L12.736,13.2198846 L12.736,0.47588463 Z M34.292,0.47588463 L36.254,0.47588463 L41.744,13.2198846 L39.152,13.2198846 L37.964,10.3038846 L32.438,10.3038846 L31.286,13.2198846 L28.748,13.2198846 L34.292,0.47588463 Z M37.172,8.35988463 L35.21,3.17588463 L33.212,8.35988463 L37.172,8.35988463 Z M44.004,0.47588463 L48.432,0.47588463 C49.032003,0.47588463 49.6139972,0.538884 50.178,0.66488463 C50.7420028,0.79088526 51.2429978,0.99788319 51.681,1.28588463 C52.1190022,1.57388607 52.4699987,1.95188229 52.734,2.41988463 C52.9980013,2.88788697 53.13,3.45788127 53.13,4.12988463 C53.13,5.05388925 52.8690026,5.80688172 52.347,6.38888463 C51.8249974,6.97088754 51.1140045,7.36388361 50.214,7.56788463 L53.616,13.2198846 L50.88,13.2198846 L47.928,7.81988463 L46.272,7.81988463 L46.272,13.2198846 L44.004,13.2198846 L44.004,0.47588463 Z M48.126,5.96588463 C48.4500016,5.96588463 48.7739984,5.94188487 49.098,5.89388463 C49.4220016,5.84588439 49.7129987,5.75588529 49.971,5.62388463 C50.2290013,5.49188397 50.4419992,5.30288586 50.61,5.05688463 C50.7780008,4.8108834 50.862,4.49588655 50.862,4.11188463 C50.862,3.76388289 50.7840008,3.47888574 50.628,3.25688463 C50.4719992,3.03488352 50.2740012,2.85788529 50.034,2.72588463 C49.7939988,2.59388397 49.5210015,2.50388487 49.215,2.45588463 C48.9089985,2.40788439 48.6120014,2.38388463 48.324,2.38388463 L46.272,2.38388463 L46.272,5.96588463 L48.126,5.96588463 Z M58.684,2.45588463 L54.778,2.45588463 L54.778,0.47588463 L64.858,0.47588463 L64.858,2.45588463 L60.952,2.45588463 L60.952,13.2198846 L58.684,13.2198846 L58.684,2.45588463 Z" id="SMART" fill="#4A87FF" sketch:type="MSShapeGroup"></path>
    </g>
</svg>